# xmcd
# Track frame offsets:
# 150
# 17275
# 34426
# 51272
# 71233
# 94829
# 112066
# 132306
# 155935
# 169611
# 191893
#
# Disc length: 2871 seconds
# Revision: 0
# Processed by: cddbd v1.4PL0 Copyright (c) Steve Scherf et al.
# Submitted via: VisiTrax 2.9.5.181 - For more info visit www.synapsa.com
#
DISCID=a20b350b
DTITLE=Jalapeno Compadres - Texas Tales and Other Lies
DYEAR=2003
DGENRE=
TTITLE0=Little Rider
TTITLE1=All it Takes
TTITLE2=Dead and Gone
TTITLE3=I Love a Country Song too
TTITLE4=Mister Mister por favor
TTITLE5=Across the Rio Grande
TTITLE6=Talkin bout Love
TTITLE7=Thing to Wonder
TTITLE8=Greyhound Station Blues
TTITLE9=The Legend Still Lives On
TTITLE10=You are the Rain
EXTD=
EXTT0=
EXTT1=
EXTT2=
EXTT3=
EXTT4=
EXTT5=
EXTT6=
EXTT7=
EXTT8=
EXTT9=
EXTT10=
PLAYORDER=
